<svg t="1761982748029" class="icon" viewBox="0 0 1024 1024" version="1.1" xmlns="http://www.w3.org/2000/svg" p-id="15405" width="128" height="128"><path d="M137.735211 21.633803a14.422535 14.422535 0 0 1 14.422535-14.422535h770.408564a14.422535 14.422535 0 0 1 14.422535 14.422535V259.605634H137.735211V21.633803z" fill="#71C3FF" p-id="15406"></path><path d="M137.735211 259.605634h799.253634v252.394366H137.735211z" fill="#4397F2" p-id="15407"></path><path d="M137.735211 512h799.253634V764.394366H137.735211z" fill="#2675EB" p-id="15408"></path><path d="M137.735211 764.394366h799.253634v237.971831a14.422535 14.422535 0 0 1-14.422535 14.422535H152.157746a14.422535 14.422535 0 0 1-14.422535-14.422535V764.394366z" fill="#2A5DB7" p-id="15409"></path><path d="M137.735211 316.098704a14.422535 14.422535 0 0 1 14.422535-14.422535h391.817015a14.422535 14.422535 0 0 1 14.422535 14.422535v461.521127a28.84507 28.84507 0 0 1-28.845071 28.84507H152.157746a14.422535 14.422535 0 0 1-14.422535-14.422535v-475.943662z" fill="#1E4C9C" p-id="15410"></path><path d="M11.538028 259.605634m14.422535 0l475.943662 0q14.422535 0 14.422536 14.422535l0 475.943662q0 14.422535-14.422536 14.422535l-475.943662 0q-14.422535 0-14.422535-14.422535l0-475.943662q0-14.422535 14.422535-14.422535Z" fill="#2675EB" p-id="15411"></path><path d="M383.567324 385.802817L340.660282 541.277746l-45.935775-155.474929h-61.584225L187.204507 540.772958 144.297465 385.802817H75.141408l80.261409 252.394366h62.089014l46.440563-152.950986 46.440564 152.950986h62.089014l80.261408-252.394366h-69.156056z" fill="#FFFFFF" p-id="15412"></path></svg>